<svg xmlns="http://www.w3.org/2000/svg" width="16" height="16" viewBox="0 0 16 16" fill="none"><path d="M8 0a8 8 0 1 0 0 16A8 8 0 0 0 8 0M4.47 5.11c.18-.4.4-.77.65-1.1.5-.64 1.08-1.08 1.62-1.25a6.1 6.1 0 0 0-2.27 2.35m-1 1.7a6 6 0 0 1 .31-.87h1.55c-.07.58-.1 1.17-.1 1.75H3.5a6.1 6.1 0 0 1-.04-.88zm1.3 2.63c.08.57.2 1.12.37 1.63q-.27-.33-.51-.7A6 6 0 0 1 4.3 9.55zm1.31 3.41c-.56-.17-1.14-.62-1.64-1.26a5.4 5.4 0 0 1-.64-1.09 5.9 5.9 0 0 0 2.28 2.35m5.59-3.41a5.3 5.3 0 0 1-.21.93q-.24.38-.52.7c.17-.51.3-1.06.38-1.63zm1.02-1.75h-1.72c0-.58-.04-1.17-.1-1.75h1.54q.22.44.31.88a6 6 0 0 1-.03.87M8.25 1.1q.3.43.56.91c.28.53.51 1.1.67 1.7H6.52c.16-.6.39-1.17.67-1.7q.26-.48.56-.91c.17-.04.34-.06.5-.06s.33.02.5.06zm3.48 4.01c.03.29.05.58.05.88v.87h-1.72c.06-.59.1-1.17.1-1.75zM8.75 1.1a6.1 6.1 0 0 1 2.27 2.35 5 5 0 0 0-.65-1.1C9.89 1.71 9.31 1.27 8.75 1.1m-.5 12.8a6.1 6.1 0 0 1-2.28-2.35c.18.4.4.77.65 1.1.5.64 1.08 1.08 1.63 1.25m.5 0c.55-.17 1.13-.61 1.63-1.25.25-.33.47-.7.65-1.1A6.1 6.1 0 0 1 8.75 13.9zm1.53-5.04c-.07 1.13-.2 2.16-.41 2.97-.13.5-.28.88-.42 1.12-.09.16-.16.22-.2.24-.04-.02-.11-.08-.2-.24-.14-.24-.29-.62-.42-1.12-.2-.81-.34-1.84-.4-2.97zM7.12 11.85c-.13-.24-.29-.62-.42-1.12-.2-.81-.34-1.84-.4-2.97h3.4c-.06 1.13-.2 2.16-.41 2.97-.13.5-.28.88-.42 1.12-.09.16-.16.22-.2.24-.04-.02-.11-.08-.2-.24zm-1.06-5.1c.06-1.14.2-2.17.41-2.97.13-.5.28-.88.42-1.12.09-.16.16-.22.2-.24.04.02.11.08.2.24.14.24.29.62.42 1.12.2.8.34 1.83.4 2.97zm2.14-4.33c.04-.02.11-.08.2-.24.14-.24.29-.62.42-1.12.2-.8.34-1.83.4-2.97H6.06c.06 1.14.2 2.17.41 2.97.13.5.28.88.42 1.12.09.16.16.22.2.24m-4.26 1.7a6 6 0 0 0-.3.87h1.54c.06-.58.1-1.17.15-1.75H3.78a6 6 0 0 0-.94.88zm7.93-.88c.05.58.08 1.17.15 1.75h1.54a6 6 0 0 0-.3-.87 6 6 0 0 0-.94-.88z" fill="#666"/></svg>
