<svg xmlns="http://www.w3.org/2000/svg" fill="none" viewBox="0 0 394 80"><path fill="#000" d="M262 0h68.5v12.7h-27.2v66.6h-13.1V12.7H262V0ZM149 0v12.7H94v21.8H144.8V47H94v21.5h55.3v12.6H80.5V0h68.7zm34.3 0h-17.8l63.8 79.4h17.9l-32-39.7 32-39.7h-17.9l-23 28.6-23-28.6zm18.3 56.7-9-11-27.1 33.7h17.8l18.3-22.7z"/><path fill="#000" d="M81 79.3 17 0H0v79.3h13.6V17l50.2 62.3H81Zm288.9-20.6v-.4c17.4-3.3 24.8-16 24.8-27.5 0-4.1-.6-8.7-3.7-13.2-4.6-6.7-13.9-11.7-29.8-11.7-6.9 0-13.5.6-20.9 1.5v69.7h13V56.7h7.6c8.1 0 11.7 3.9 13.1 11.4 1.4 7.5 2.5 9.4 3.6 11.4h14.2c-1.5-2.3-2.3-5.7-3.9-12.7-1.3-5.7-4.2-9.8-10.1-12.1zm-16.7-8.2V12c2.7-.5 5.2-.5 7.7-.5 12.7 0 18.3 5.5 18.3 14.5 0 9.8-6.2 15.2-19.1 15.2h-6.9z"/></svg>
